<mxfile host="app.diagrams.net" modified="2024-05-13T02:20:35.059Z" agent="Mozilla/5.0 (Windows NT 10.0; Win64; x64) AppleWebKit/537.36 (KHTML, like Gecko) Chrome/124.0.0.0 Safari/537.36" etag="ft0zQHjypPS_fNzlA1ZC" version="24.3.1" type="device">
  <diagram id="27mD9-Q3pYBX4gFFnrZY" name="Page-1">
    <mxGraphModel dx="1434" dy="738" grid="1" gridSize="10" guides="1" tooltips="1" connect="1" arrows="1" fold="1" page="1" pageScale="1" pageWidth="827" pageHeight="1169" math="0" shadow="0">
      <root>
        <mxCell id="0" />
        <mxCell id="1" parent="0" />
        <mxCell id="e64zVv4T8qI5gEvesWaj-1" value="about" style="swimlane;fontStyle=1;align=center;verticalAlign=top;childLayout=stackLayout;horizontal=1;startSize=26;horizontalStack=0;resizeParent=1;resizeParentMax=0;resizeLast=0;collapsible=1;marginBottom=0;" parent="1" vertex="1">
          <mxGeometry x="61" y="303" width="160" height="200" as="geometry">
            <mxRectangle x="100" y="80" width="60" height="26" as="alternateBounds" />
          </mxGeometry>
        </mxCell>
        <mxCell id="e64zVv4T8qI5gEvesWaj-2" value="+ id&#xa;+ image&#xa;+ title&#xa;+ deskripsi&#xa;+ user_create&#xa;+ user_update&#xa;+ created_at&#xa;+ updated_at" style="text;strokeColor=none;fillColor=none;align=left;verticalAlign=top;spacingLeft=4;spacingRight=4;overflow=hidden;rotatable=0;points=[[0,0.5],[1,0.5]];portConstraint=eastwest;" parent="e64zVv4T8qI5gEvesWaj-1" vertex="1">
          <mxGeometry y="26" width="160" height="124" as="geometry" />
        </mxCell>
        <mxCell id="e64zVv4T8qI5gEvesWaj-3" value="" style="line;strokeWidth=1;fillColor=none;align=left;verticalAlign=middle;spacingTop=-1;spacingLeft=3;spacingRight=3;rotatable=0;labelPosition=right;points=[];portConstraint=eastwest;" parent="e64zVv4T8qI5gEvesWaj-1" vertex="1">
          <mxGeometry y="150" width="160" height="8" as="geometry" />
        </mxCell>
        <mxCell id="e64zVv4T8qI5gEvesWaj-4" value="+ update&#xa;+ delete" style="text;strokeColor=none;fillColor=none;align=left;verticalAlign=top;spacingLeft=4;spacingRight=4;overflow=hidden;rotatable=0;points=[[0,0.5],[1,0.5]];portConstraint=eastwest;" parent="e64zVv4T8qI5gEvesWaj-1" vertex="1">
          <mxGeometry y="158" width="160" height="42" as="geometry" />
        </mxCell>
        <mxCell id="YhwFqqTtSiGSPie70MSF-8" value="" style="rounded=0;orthogonalLoop=1;jettySize=auto;html=1;entryX=-0.004;entryY=0.631;entryDx=0;entryDy=0;entryPerimeter=0;" parent="1" target="YhwFqqTtSiGSPie70MSF-5" edge="1">
          <mxGeometry relative="1" as="geometry">
            <mxPoint x="481" y="390" as="sourcePoint" />
            <mxPoint x="541" y="510" as="targetPoint" />
          </mxGeometry>
        </mxCell>
        <mxCell id="e64zVv4T8qI5gEvesWaj-5" value="users" style="swimlane;fontStyle=1;align=center;verticalAlign=top;childLayout=stackLayout;horizontal=1;startSize=26;horizontalStack=0;resizeParent=1;resizeParentMax=0;resizeLast=0;collapsible=1;marginBottom=0;" parent="1" vertex="1">
          <mxGeometry x="320.5" y="350" width="160" height="248" as="geometry" />
        </mxCell>
        <mxCell id="e64zVv4T8qI5gEvesWaj-6" value="+ id&#xa;+ name&#xa;+ email&#xa;+ email_verified_at&#xa;+ password&#xa;+ roles&#xa;+ foto&#xa;+ status&#xa;+ remember_token&#xa;+ created_at&#xa;+ updated_at&#xa;+ deleted_at" style="text;strokeColor=none;fillColor=none;align=left;verticalAlign=top;spacingLeft=4;spacingRight=4;overflow=hidden;rotatable=0;points=[[0,0.5],[1,0.5]];portConstraint=eastwest;" parent="e64zVv4T8qI5gEvesWaj-5" vertex="1">
          <mxGeometry y="26" width="160" height="174" as="geometry" />
        </mxCell>
        <mxCell id="e64zVv4T8qI5gEvesWaj-7" value="" style="line;strokeWidth=1;fillColor=none;align=left;verticalAlign=middle;spacingTop=-1;spacingLeft=3;spacingRight=3;rotatable=0;labelPosition=right;points=[];portConstraint=eastwest;" parent="e64zVv4T8qI5gEvesWaj-5" vertex="1">
          <mxGeometry y="200" width="160" height="8" as="geometry" />
        </mxCell>
        <mxCell id="e64zVv4T8qI5gEvesWaj-8" value="+ update&#xa;+ delete" style="text;strokeColor=none;fillColor=none;align=left;verticalAlign=top;spacingLeft=4;spacingRight=4;overflow=hidden;rotatable=0;points=[[0,0.5],[1,0.5]];portConstraint=eastwest;" parent="e64zVv4T8qI5gEvesWaj-5" vertex="1">
          <mxGeometry y="208" width="160" height="40" as="geometry" />
        </mxCell>
        <mxCell id="YhwFqqTtSiGSPie70MSF-4" value="member" style="swimlane;fontStyle=1;align=center;verticalAlign=top;childLayout=stackLayout;horizontal=1;startSize=26;horizontalStack=0;resizeParent=1;resizeParentMax=0;resizeLast=0;collapsible=1;marginBottom=0;" parent="1" vertex="1">
          <mxGeometry x="621" y="350" width="160" height="248" as="geometry" />
        </mxCell>
        <mxCell id="YhwFqqTtSiGSPie70MSF-5" value="+ id&#xa;+ name&#xa;+ address&#xa;+ image&#xa;+ join&#xa;+ status&#xa;+ aktif&#xa;+ user_create&#xa;+ user_update&#xa;+ created_at&#xa;+ updated_at&#xa;+ deleted_at" style="text;strokeColor=none;fillColor=none;align=left;verticalAlign=top;spacingLeft=4;spacingRight=4;overflow=hidden;rotatable=0;points=[[0,0.5],[1,0.5]];portConstraint=eastwest;" parent="YhwFqqTtSiGSPie70MSF-4" vertex="1">
          <mxGeometry y="26" width="160" height="174" as="geometry" />
        </mxCell>
        <mxCell id="YhwFqqTtSiGSPie70MSF-6" value="" style="line;strokeWidth=1;fillColor=none;align=left;verticalAlign=middle;spacingTop=-1;spacingLeft=3;spacingRight=3;rotatable=0;labelPosition=right;points=[];portConstraint=eastwest;" parent="YhwFqqTtSiGSPie70MSF-4" vertex="1">
          <mxGeometry y="200" width="160" height="8" as="geometry" />
        </mxCell>
        <mxCell id="YhwFqqTtSiGSPie70MSF-7" value="+ update&#xa;+ delete" style="text;strokeColor=none;fillColor=none;align=left;verticalAlign=top;spacingLeft=4;spacingRight=4;overflow=hidden;rotatable=0;points=[[0,0.5],[1,0.5]];portConstraint=eastwest;" parent="YhwFqqTtSiGSPie70MSF-4" vertex="1">
          <mxGeometry y="208" width="160" height="40" as="geometry" />
        </mxCell>
        <mxCell id="YhwFqqTtSiGSPie70MSF-9" value="setting" style="swimlane;fontStyle=1;align=center;verticalAlign=top;childLayout=stackLayout;horizontal=1;startSize=26;horizontalStack=0;resizeParent=1;resizeParentMax=0;resizeLast=0;collapsible=1;marginBottom=0;" parent="1" vertex="1">
          <mxGeometry x="322" y="80" width="160" height="168" as="geometry" />
        </mxCell>
        <mxCell id="YhwFqqTtSiGSPie70MSF-10" value="+ id&#xa;+ kelas&#xa;+ id_sekolah&#xa;+ created_at&#xa;+ updated_at&#xa;+ deleted_at&#xa;" style="text;strokeColor=none;fillColor=none;align=left;verticalAlign=top;spacingLeft=4;spacingRight=4;overflow=hidden;rotatable=0;points=[[0,0.5],[1,0.5]];portConstraint=eastwest;" parent="YhwFqqTtSiGSPie70MSF-9" vertex="1">
          <mxGeometry y="26" width="160" height="94" as="geometry" />
        </mxCell>
        <mxCell id="YhwFqqTtSiGSPie70MSF-11" value="" style="line;strokeWidth=1;fillColor=none;align=left;verticalAlign=middle;spacingTop=-1;spacingLeft=3;spacingRight=3;rotatable=0;labelPosition=right;points=[];portConstraint=eastwest;" parent="YhwFqqTtSiGSPie70MSF-9" vertex="1">
          <mxGeometry y="120" width="160" height="8" as="geometry" />
        </mxCell>
        <mxCell id="YhwFqqTtSiGSPie70MSF-12" value="+ update&#xa;+ delete" style="text;strokeColor=none;fillColor=none;align=left;verticalAlign=top;spacingLeft=4;spacingRight=4;overflow=hidden;rotatable=0;points=[[0,0.5],[1,0.5]];portConstraint=eastwest;" parent="YhwFqqTtSiGSPie70MSF-9" vertex="1">
          <mxGeometry y="128" width="160" height="40" as="geometry" />
        </mxCell>
        <mxCell id="YhwFqqTtSiGSPie70MSF-15" value="blog" style="swimlane;fontStyle=1;align=center;verticalAlign=top;childLayout=stackLayout;horizontal=1;startSize=26;horizontalStack=0;resizeParent=1;resizeParentMax=0;resizeLast=0;collapsible=1;marginBottom=0;" parent="1" vertex="1">
          <mxGeometry x="61" y="561" width="140" height="230" as="geometry">
            <mxRectangle x="100" y="80" width="60" height="26" as="alternateBounds" />
          </mxGeometry>
        </mxCell>
        <mxCell id="YhwFqqTtSiGSPie70MSF-16" value="+ id&#xa;+ title&#xa;+ deskripsi&#xa;+ image&#xa;+ aktif&#xa;+ user_create&#xa;+ user_update&#xa;+ created_at&#xa;+ updated_at&#xa;+ deleted_at" style="text;strokeColor=none;fillColor=none;align=left;verticalAlign=top;spacingLeft=4;spacingRight=4;overflow=hidden;rotatable=0;points=[[0,0.5],[1,0.5]];portConstraint=eastwest;" parent="YhwFqqTtSiGSPie70MSF-15" vertex="1">
          <mxGeometry y="26" width="140" height="154" as="geometry" />
        </mxCell>
        <mxCell id="YhwFqqTtSiGSPie70MSF-17" value="" style="line;strokeWidth=1;fillColor=none;align=left;verticalAlign=middle;spacingTop=-1;spacingLeft=3;spacingRight=3;rotatable=0;labelPosition=right;points=[];portConstraint=eastwest;" parent="YhwFqqTtSiGSPie70MSF-15" vertex="1">
          <mxGeometry y="180" width="140" height="8" as="geometry" />
        </mxCell>
        <mxCell id="YhwFqqTtSiGSPie70MSF-18" value="+ update&#xa;+ delete" style="text;strokeColor=none;fillColor=none;align=left;verticalAlign=top;spacingLeft=4;spacingRight=4;overflow=hidden;rotatable=0;points=[[0,0.5],[1,0.5]];portConstraint=eastwest;" parent="YhwFqqTtSiGSPie70MSF-15" vertex="1">
          <mxGeometry y="188" width="140" height="42" as="geometry" />
        </mxCell>
        <mxCell id="YhwFqqTtSiGSPie70MSF-25" value="galery" style="swimlane;fontStyle=1;align=center;verticalAlign=top;childLayout=stackLayout;horizontal=1;startSize=26;horizontalStack=0;resizeParent=1;resizeParentMax=0;resizeLast=0;collapsible=1;marginBottom=0;" parent="1" vertex="1">
          <mxGeometry x="621" y="630" width="140" height="200" as="geometry">
            <mxRectangle x="100" y="80" width="60" height="26" as="alternateBounds" />
          </mxGeometry>
        </mxCell>
        <mxCell id="YhwFqqTtSiGSPie70MSF-26" value="+ id&#xa;+ image&#xa;+ aktif&#xa;+ user_create&#xa;+ user_update&#xa;+ created_at&#xa;+ updated_at&#xa;+ deleted_at" style="text;strokeColor=none;fillColor=none;align=left;verticalAlign=top;spacingLeft=4;spacingRight=4;overflow=hidden;rotatable=0;points=[[0,0.5],[1,0.5]];portConstraint=eastwest;" parent="YhwFqqTtSiGSPie70MSF-25" vertex="1">
          <mxGeometry y="26" width="140" height="124" as="geometry" />
        </mxCell>
        <mxCell id="YhwFqqTtSiGSPie70MSF-27" value="" style="line;strokeWidth=1;fillColor=none;align=left;verticalAlign=middle;spacingTop=-1;spacingLeft=3;spacingRight=3;rotatable=0;labelPosition=right;points=[];portConstraint=eastwest;" parent="YhwFqqTtSiGSPie70MSF-25" vertex="1">
          <mxGeometry y="150" width="140" height="8" as="geometry" />
        </mxCell>
        <mxCell id="YhwFqqTtSiGSPie70MSF-28" value="+ update&#xa;+ delete" style="text;strokeColor=none;fillColor=none;align=left;verticalAlign=top;spacingLeft=4;spacingRight=4;overflow=hidden;rotatable=0;points=[[0,0.5],[1,0.5]];portConstraint=eastwest;" parent="YhwFqqTtSiGSPie70MSF-25" vertex="1">
          <mxGeometry y="158" width="140" height="42" as="geometry" />
        </mxCell>
        <mxCell id="YhwFqqTtSiGSPie70MSF-34" value="contact_us" style="swimlane;fontStyle=1;align=center;verticalAlign=top;childLayout=stackLayout;horizontal=1;startSize=26;horizontalStack=0;resizeParent=1;resizeParentMax=0;resizeLast=0;collapsible=1;marginBottom=0;" parent="1" vertex="1">
          <mxGeometry x="61" y="80" width="160" height="150" as="geometry" />
        </mxCell>
        <mxCell id="YhwFqqTtSiGSPie70MSF-35" value="+ id&#xa;+ email&#xa;+ subject&#xa;+ message&#xa;+ created_at&#xa;+ updated_at" style="text;strokeColor=none;fillColor=none;align=left;verticalAlign=top;spacingLeft=4;spacingRight=4;overflow=hidden;rotatable=0;points=[[0,0.5],[1,0.5]];portConstraint=eastwest;" parent="YhwFqqTtSiGSPie70MSF-34" vertex="1">
          <mxGeometry y="26" width="160" height="94" as="geometry" />
        </mxCell>
        <mxCell id="YhwFqqTtSiGSPie70MSF-36" value="" style="line;strokeWidth=1;fillColor=none;align=left;verticalAlign=middle;spacingTop=-1;spacingLeft=3;spacingRight=3;rotatable=0;labelPosition=right;points=[];portConstraint=eastwest;" parent="YhwFqqTtSiGSPie70MSF-34" vertex="1">
          <mxGeometry y="120" width="160" height="8" as="geometry" />
        </mxCell>
        <mxCell id="YhwFqqTtSiGSPie70MSF-37" value="-" style="text;strokeColor=none;fillColor=none;align=left;verticalAlign=top;spacingLeft=4;spacingRight=4;overflow=hidden;rotatable=0;points=[[0,0.5],[1,0.5]];portConstraint=eastwest;" parent="YhwFqqTtSiGSPie70MSF-34" vertex="1">
          <mxGeometry y="128" width="160" height="22" as="geometry" />
        </mxCell>
        <mxCell id="YhwFqqTtSiGSPie70MSF-39" value="sliders" style="swimlane;fontStyle=1;align=center;verticalAlign=top;childLayout=stackLayout;horizontal=1;startSize=26;horizontalStack=0;resizeParent=1;resizeParentMax=0;resizeLast=0;collapsible=1;marginBottom=0;" parent="1" vertex="1">
          <mxGeometry x="621" y="110" width="160" height="218" as="geometry" />
        </mxCell>
        <mxCell id="YhwFqqTtSiGSPie70MSF-40" value="+ id&#xa;+ image&#xa;+ title&#xa;+ deskripsi&#xa;+ link&#xa;+ aktif&#xa;+ user_create&#xa;+ user_update&#xa;+ created_at&#xa;+ updated_at" style="text;strokeColor=none;fillColor=none;align=left;verticalAlign=top;spacingLeft=4;spacingRight=4;overflow=hidden;rotatable=0;points=[[0,0.5],[1,0.5]];portConstraint=eastwest;" parent="YhwFqqTtSiGSPie70MSF-39" vertex="1">
          <mxGeometry y="26" width="160" height="144" as="geometry" />
        </mxCell>
        <mxCell id="YhwFqqTtSiGSPie70MSF-41" value="" style="line;strokeWidth=1;fillColor=none;align=left;verticalAlign=middle;spacingTop=-1;spacingLeft=3;spacingRight=3;rotatable=0;labelPosition=right;points=[];portConstraint=eastwest;" parent="YhwFqqTtSiGSPie70MSF-39" vertex="1">
          <mxGeometry y="170" width="160" height="8" as="geometry" />
        </mxCell>
        <mxCell id="YhwFqqTtSiGSPie70MSF-42" value="+ update&#xa;+ delete" style="text;strokeColor=none;fillColor=none;align=left;verticalAlign=top;spacingLeft=4;spacingRight=4;overflow=hidden;rotatable=0;points=[[0,0.5],[1,0.5]];portConstraint=eastwest;" parent="YhwFqqTtSiGSPie70MSF-39" vertex="1">
          <mxGeometry y="178" width="160" height="40" as="geometry" />
        </mxCell>
        <mxCell id="gl_t5ciZzvd6D5qYHHqg-1" value="" style="rounded=0;orthogonalLoop=1;jettySize=auto;html=1;exitX=-0.002;exitY=0.454;exitDx=0;exitDy=0;startArrow=block;startFill=1;endArrow=none;endFill=0;exitPerimeter=0;" parent="1" source="YhwFqqTtSiGSPie70MSF-26" edge="1">
          <mxGeometry relative="1" as="geometry">
            <mxPoint x="493" y="493" as="sourcePoint" />
            <mxPoint x="481" y="390" as="targetPoint" />
          </mxGeometry>
        </mxCell>
        <mxCell id="gl_t5ciZzvd6D5qYHHqg-4" style="edgeStyle=orthogonalEdgeStyle;rounded=0;orthogonalLoop=1;jettySize=auto;html=1;exitX=0.5;exitY=0;exitDx=0;exitDy=0;entryX=0.488;entryY=1.008;entryDx=0;entryDy=0;entryPerimeter=0;" parent="1" source="e64zVv4T8qI5gEvesWaj-5" target="YhwFqqTtSiGSPie70MSF-12" edge="1">
          <mxGeometry relative="1" as="geometry">
            <Array as="points" />
          </mxGeometry>
        </mxCell>
        <mxCell id="MPAEzm78UIieqOtgWLVW-6" value="1... *" style="text;html=1;strokeColor=none;fillColor=none;align=center;verticalAlign=middle;whiteSpace=wrap;rounded=0;" parent="1" vertex="1">
          <mxGeometry x="280.5" y="390.5" width="40" height="20" as="geometry" />
        </mxCell>
        <mxCell id="MPAEzm78UIieqOtgWLVW-8" value="1... 1" style="text;html=1;strokeColor=none;fillColor=none;align=center;verticalAlign=middle;whiteSpace=wrap;rounded=0;" parent="1" vertex="1">
          <mxGeometry x="359" y="332" width="40" height="17" as="geometry" />
        </mxCell>
        <mxCell id="MPAEzm78UIieqOtgWLVW-11" value="1... 1" style="text;html=1;strokeColor=none;fillColor=none;align=center;verticalAlign=middle;whiteSpace=wrap;rounded=0;" parent="1" vertex="1">
          <mxGeometry x="201" y="665" width="40" height="17" as="geometry" />
        </mxCell>
        <mxCell id="MPAEzm78UIieqOtgWLVW-12" value="1... 1" style="text;html=1;strokeColor=none;fillColor=none;align=center;verticalAlign=middle;whiteSpace=wrap;rounded=0;" parent="1" vertex="1">
          <mxGeometry x="581" y="486" width="40" height="17" as="geometry" />
        </mxCell>
        <mxCell id="MPAEzm78UIieqOtgWLVW-13" value="1... 1" style="text;html=1;strokeColor=none;fillColor=none;align=center;verticalAlign=middle;whiteSpace=wrap;rounded=0;" parent="1" vertex="1">
          <mxGeometry x="584" y="200" width="40" height="17" as="geometry" />
        </mxCell>
        <mxCell id="MPAEzm78UIieqOtgWLVW-17" value="1... *" style="text;html=1;strokeColor=none;fillColor=none;align=center;verticalAlign=middle;whiteSpace=wrap;rounded=0;" parent="1" vertex="1">
          <mxGeometry x="472" y="334" width="40" height="20" as="geometry" />
        </mxCell>
        <mxCell id="MPAEzm78UIieqOtgWLVW-18" value="1... *" style="text;html=1;strokeColor=none;fillColor=none;align=center;verticalAlign=middle;whiteSpace=wrap;rounded=0;" parent="1" vertex="1">
          <mxGeometry x="480.5" y="380" width="40" height="20" as="geometry" />
        </mxCell>
        <mxCell id="MPAEzm78UIieqOtgWLVW-23" value="1... *" style="text;html=1;strokeColor=none;fillColor=none;align=center;verticalAlign=middle;whiteSpace=wrap;rounded=0;" parent="1" vertex="1">
          <mxGeometry x="282" y="370" width="40" height="20" as="geometry" />
        </mxCell>
        <mxCell id="MPAEzm78UIieqOtgWLVW-25" value="1... 1" style="text;html=1;strokeColor=none;fillColor=none;align=center;verticalAlign=middle;whiteSpace=wrap;rounded=0;" parent="1" vertex="1">
          <mxGeometry x="581" y="710" width="40" height="17" as="geometry" />
        </mxCell>
        <mxCell id="MPAEzm78UIieqOtgWLVW-26" value="1... 1" style="text;html=1;strokeColor=none;fillColor=none;align=center;verticalAlign=middle;whiteSpace=wrap;rounded=0;" parent="1" vertex="1">
          <mxGeometry x="401" y="249" width="40" height="17" as="geometry" />
        </mxCell>
        <mxCell id="MPAEzm78UIieqOtgWLVW-27" value="1... *" style="text;html=1;strokeColor=none;fillColor=none;align=center;verticalAlign=middle;whiteSpace=wrap;rounded=0;" parent="1" vertex="1">
          <mxGeometry x="488" y="414" width="40" height="20" as="geometry" />
        </mxCell>
        <mxCell id="MPAEzm78UIieqOtgWLVW-28" value="1... 1" style="text;html=1;strokeColor=none;fillColor=none;align=center;verticalAlign=middle;whiteSpace=wrap;rounded=0;" parent="1" vertex="1">
          <mxGeometry x="221" y="397" width="40" height="17" as="geometry" />
        </mxCell>
        <mxCell id="MPAEzm78UIieqOtgWLVW-29" value="&amp;nbsp;" style="text;html=1;align=center;verticalAlign=middle;resizable=0;points=[];autosize=1;strokeColor=none;fillColor=none;" parent="1" vertex="1">
          <mxGeometry x="803" y="880" width="20" height="20" as="geometry" />
        </mxCell>
        <mxCell id="MPAEzm78UIieqOtgWLVW-30" value="&amp;nbsp;" style="text;html=1;align=center;verticalAlign=middle;resizable=0;points=[];autosize=1;strokeColor=none;fillColor=none;" parent="1" vertex="1">
          <mxGeometry x="19" y="880" width="20" height="20" as="geometry" />
        </mxCell>
        <mxCell id="MPAEzm78UIieqOtgWLVW-31" value="&amp;nbsp;" style="text;html=1;align=center;verticalAlign=middle;resizable=0;points=[];autosize=1;strokeColor=none;fillColor=none;" parent="1" vertex="1">
          <mxGeometry x="795" width="20" height="20" as="geometry" />
        </mxCell>
        <mxCell id="MPAEzm78UIieqOtgWLVW-32" value="&amp;nbsp;" style="text;html=1;align=center;verticalAlign=middle;resizable=0;points=[];autosize=1;strokeColor=none;fillColor=none;" parent="1" vertex="1">
          <mxGeometry x="10" width="20" height="20" as="geometry" />
        </mxCell>
        <mxCell id="YhwFqqTtSiGSPie70MSF-56" value="" style="rounded=0;orthogonalLoop=1;jettySize=auto;html=1;entryX=1;entryY=0.5;entryDx=0;entryDy=0;exitX=0.955;exitY=1.003;exitDx=0;exitDy=0;exitPerimeter=0;" parent="1" source="MPAEzm78UIieqOtgWLVW-23" target="e64zVv4T8qI5gEvesWaj-2" edge="1">
          <mxGeometry relative="1" as="geometry">
            <mxPoint x="321" y="390" as="sourcePoint" />
            <mxPoint x="131" y="293" as="targetPoint" />
          </mxGeometry>
        </mxCell>
        <mxCell id="YMw3tIK15wWdaLpMXYvY-2" value="" style="rounded=0;orthogonalLoop=1;jettySize=auto;html=1;entryX=0.003;entryY=0.082;entryDx=0;entryDy=0;entryPerimeter=0;" edge="1" parent="1" target="YhwFqqTtSiGSPie70MSF-40">
          <mxGeometry relative="1" as="geometry">
            <mxPoint x="481" y="390" as="sourcePoint" />
            <mxPoint x="211" y="158" as="targetPoint" />
          </mxGeometry>
        </mxCell>
        <mxCell id="YMw3tIK15wWdaLpMXYvY-3" value="" style="rounded=0;orthogonalLoop=1;jettySize=auto;html=1;entryX=0.998;entryY=0.512;entryDx=0;entryDy=0;entryPerimeter=0;exitX=0.966;exitY=1.005;exitDx=0;exitDy=0;exitPerimeter=0;" edge="1" parent="1" source="MPAEzm78UIieqOtgWLVW-23" target="YhwFqqTtSiGSPie70MSF-16">
          <mxGeometry relative="1" as="geometry">
            <mxPoint x="321" y="390" as="sourcePoint" />
            <mxPoint x="211" y="448" as="targetPoint" />
          </mxGeometry>
        </mxCell>
      </root>
    </mxGraphModel>
  </diagram>
</mxfile>
